<svg width="320" height="320" viewBox="0 0 320 320" fill="none" xmlns="http://www.w3.org/2000/svg">
<g clip-path="url(#clip0_7_29387)">
<path d="M29.4927 145.972C33.7806 166.555 60.4358 227.805 88.2448 267.259C91.0102 271.178 95.4944 273.521 100.288 273.521H212.463C217.4 273.521 222.003 271.047 224.726 266.938C255.783 220.062 290.145 166.692 292.994 126.358C264.685 126.358 29.4927 145.972 29.4927 145.972Z" fill="#9777C9"/>
<path d="M29.4928 145.972C43.9682 224.219 260.166 229.649 289.111 145.972C332.132 21.6046 3.24196 4.03663 29.4928 145.972Z" fill="#D2DEFF"/>
<path d="M38.5978 166.079C79.5976 220.05 236.526 221.84 280.683 161.874C283.235 158.407 298.459 85.3105 163.298 85.3105C28.1368 85.3105 35.9335 162.576 38.5978 166.079Z" fill="#FDBC43"/>
<path d="M47.8934 140.768C48.4941 135.041 61.7622 131.42 62.6662 138.961C63.475 145.711 64.2838 153.43 68.994 157.997C70.3024 159.27 71.1052 160.989 71.2717 162.803C71.9795 170.427 69.6363 173.912 67.186 173.936C61.4589 173.983 45.7762 161.274 47.8875 140.768H47.8934Z" fill="white"/>
<path d="M277.05 111.597C266.922 105.703 252.53 109.075 246.053 117.175C237.251 128.184 243.93 149.742 232.69 155.321C223.186 160.037 215.877 158.395 210.287 163.427C208.693 164.866 209.359 167.5 211.453 167.994C221.503 170.373 238.054 172.252 245.393 160.596C253.838 147.179 250.246 130.925 256.431 125.044C262.61 119.162 271.186 124.247 273.285 125.317C278.929 128.184 285.346 116.42 277.056 111.597H277.05Z" fill="white"/>
<path d="M197.655 179.484C200.985 175.797 205.999 173.46 210.935 174.019C215.877 174.578 220.474 178.372 221.319 183.273C221.58 184.801 221.485 186.407 220.891 187.84C220.337 189.184 219.374 190.32 218.286 191.284C214.628 194.513 209.674 195.774 204.899 196.785C202.395 197.32 199.849 197.814 197.286 197.683C195.877 197.611 194.426 197.32 193.308 196.464C190.762 194.513 192.184 190.582 192.957 188.048C193.914 184.914 195.443 181.929 197.649 179.484H197.655Z" fill="#00AD2E"/>
<path d="M205.559 183.112C206.427 182.66 207.414 182.369 208.384 182.488C209.359 182.607 210.305 183.195 210.673 184.105C210.953 184.795 210.869 185.598 210.572 186.282C210.269 186.966 209.763 187.537 209.198 188.024C207.914 189.142 202.746 191.95 201.526 189.476C200.45 187.287 203.911 183.957 205.553 183.106L205.559 183.112Z" fill="white"/>
<path d="M266.892 157.652C269.265 158.11 271.739 157.325 273.767 156.017C274.832 155.327 275.819 154.482 276.515 153.418C277.698 151.622 277.972 149.32 277.573 147.209C277.097 144.67 275.747 142.38 274.225 140.298C272.887 138.473 271.335 136.712 269.319 135.677C267.302 134.643 264.727 134.446 262.83 135.677C261.433 136.587 260.558 138.151 260.19 139.781C259.821 141.405 259.904 143.1 260.089 144.759C260.35 147.156 260.772 149.576 261.468 151.889C261.944 153.465 262.711 155.172 263.978 156.249C264.811 156.95 265.822 157.444 266.892 157.652Z" fill="#00AD2E"/>
<path d="M267.582 150.432C268.26 150.67 269.015 150.521 269.681 150.248C270.169 150.045 270.633 149.772 270.989 149.385C271.81 148.499 271.941 147.155 271.685 145.983C271.477 145.032 271.025 144.11 270.282 143.486C269.538 142.861 268.48 142.57 267.558 142.885C266.517 143.242 265.827 144.3 265.661 145.395C265.441 146.846 265.952 149.867 267.582 150.438V150.432Z" fill="white"/>
<path d="M85.4261 114.874C84.641 112.591 82.732 110.83 80.5851 109.724C79.4551 109.141 78.23 108.713 76.9633 108.63C74.8163 108.499 72.6872 109.403 71.0458 110.8C69.0773 112.472 67.763 114.785 66.7222 117.146C65.8064 119.216 65.0511 121.434 65.1522 123.7C65.2533 125.966 66.3713 128.291 68.3874 129.326C69.8683 130.087 71.6643 130.063 73.2582 129.576C74.852 129.088 76.2793 128.172 77.6234 127.191C79.5741 125.775 81.4653 124.199 83.1245 122.451C84.2545 121.256 85.3547 119.739 85.658 118.104C85.8543 117.033 85.777 115.909 85.4261 114.874Z" fill="#00AD2E"/>
<path d="M78.8184 117.866C78.6875 117.158 78.182 116.575 77.6171 116.141C77.2007 115.82 76.7309 115.552 76.2195 115.433C75.0479 115.166 73.8109 115.719 72.9188 116.522C72.1992 117.176 71.6223 118.026 71.4498 118.978C71.2774 119.935 71.5509 121 72.2824 121.642C73.1091 122.368 74.3758 122.439 75.3988 122.041C76.7607 121.511 79.1336 119.561 78.8184 117.866Z" fill="white"/>
<path d="M173.676 141.143C165.189 142.541 156.816 145.33 150.214 151.027C142.887 157.349 139.854 167.216 141.543 176.618C142.435 181.572 145.136 186.217 149.364 189.018C153.569 191.807 158.766 191.968 163.572 191.064C167.806 190.273 171.832 188.304 175.609 186.3C179.183 184.403 182.621 182.256 185.874 179.859C188.972 177.576 191.946 175.167 194.759 172.568C196.008 171.414 195.455 169.339 193.795 168.952C184.405 166.764 176.001 171.837 167.979 176.166C167.098 176.642 155.834 182.006 153.955 171.063C152.141 148.309 186.516 154.869 211.06 148.869C220.147 146.65 230.073 142.856 233.154 133.144C234.724 128.184 233.665 122.564 230.144 118.704C227.093 115.362 222.788 113.852 218.411 113.59C203.138 112.662 201.116 107.381 201.342 101.363C201.521 96.6345 200.789 91.6448 198.125 87.6067C193.105 79.9884 183.578 77.4192 174.943 78.9357C170.607 79.697 166.123 81.8736 163.292 85.3111C159.617 89.7715 158.118 95.2845 159.76 100.685C161.425 106.156 164.731 115.499 161.942 120.429C158.897 125.823 152.665 125.484 149.352 121.743C141.966 113.4 150.863 92.2931 130 83.9789C122.156 80.8507 112.765 82.5873 105.557 86.7741C98.5394 90.8479 92.7766 97.7526 90.7903 105.704C88.5065 114.863 91.5099 124.247 97.005 131.675C99.8835 135.559 103.214 138.99 106.622 142.41C113.271 149.083 121.894 160.341 112.206 171.628C106.538 178.236 103.059 181.441 105.932 184.563C110.553 189.589 126.771 177.153 129.429 167.233C133.372 152.502 125.355 143.79 122.096 140.203C119.027 136.826 115.608 133.775 112.426 130.504C109.084 127.072 99.8954 120.316 103.267 109.819C107.43 96.8724 124.314 94.4876 131.552 103.028C137.606 110.176 133.973 117.723 138.522 126.317C142.905 134.595 152.992 138.984 162.115 136.73C171.029 134.53 174.58 126.347 174.984 120.233C175.549 111.669 171.868 105.05 172.017 100.131C172.272 91.4843 182.615 90.9847 185.41 96.4264C188.062 101.594 184.839 120.732 199.314 124.979C203.019 126.067 206.986 126.085 210.804 126.186C216.9 126.347 218.547 133.114 213.385 135.505C205.446 139.187 185.547 139.187 173.688 141.131L173.676 141.143Z" fill="white"/>
<path d="M103.214 136.587C100.912 137.336 98.8188 138.627 96.8621 140.054C94.4298 141.826 92.1163 143.878 90.6533 146.513C89.1903 149.141 88.6848 152.442 89.9159 155.19C90.7485 157.045 92.3542 158.538 94.2632 159.24C96.3685 160.013 98.7415 159.822 100.865 159.097C102.988 158.371 104.909 157.152 106.746 155.868C109.018 154.28 111.242 152.537 112.896 150.313C114.549 148.083 115.596 145.294 115.263 142.54C114.543 136.587 108.203 134.969 103.214 136.593V136.587Z" fill="#00AD2E"/>
<path d="M102.096 144.11C100.657 144.687 99.3898 145.639 98.2717 146.715C97.4986 147.464 96.773 148.309 96.4578 149.338C96.1426 150.367 96.3389 151.61 97.1655 152.294C97.6116 152.662 98.1944 152.835 98.7713 152.906C100.163 153.073 101.584 152.68 102.797 151.99C104.017 151.3 105.051 150.319 105.967 149.266C106.657 148.475 107.311 147.589 107.496 146.56C108.12 143.111 104.231 143.254 102.084 144.11H102.096Z" fill="white"/>
</g>
<defs>
<clipPath id="clip0_7_29387">
<rect width="265" height="227.515" fill="white" transform="translate(28 46)"/>
</clipPath>
</defs>
</svg>
