<svg width="26" height="26" viewBox="0 0 26 26" fill="none" xmlns="http://www.w3.org/2000/svg">
<path d="M6.2877 12.576C6.2877 13.7336 5.34929 14.672 4.1917 14.672C3.03411 14.672 2.0957 13.7336 2.0957 12.576C2.0957 11.4184 3.03411 10.48 4.1917 10.48C5.34929 10.48 6.2877 11.4184 6.2877 12.576Z" fill="#191919"/>
<path d="M14.671 12.576C14.671 13.7336 13.7326 14.672 12.575 14.672C11.4174 14.672 10.479 13.7336 10.479 12.576C10.479 11.4184 11.4174 10.48 12.575 10.48C13.7326 10.48 14.671 11.4184 14.671 12.576Z" fill="#191919"/>
<path d="M23.0557 12.576C23.0557 13.7336 22.1173 14.672 20.9597 14.672C19.8021 14.672 18.8637 13.7336 18.8637 12.576C18.8637 11.4184 19.8021 10.48 20.9597 10.48C22.1173 10.48 23.0557 11.4184 23.0557 12.576Z" fill="#191919"/>
</svg>
