<svg preserveAspectRatio="none" width="100%" height="100%" overflow="visible" style="display: block;" viewBox="0 0 16.768 9.432" fill="none" xmlns="http://www.w3.org/2000/svg">
<path id="Primary" d="M0.391421 0.00466511C0.313792 0.00696266 0.238437 0.0384904 0.174445 0.0857639C0.110454 0.133035 0.0605589 0.199187 0.0307755 0.27624C0.00099199 0.353293 -0.00740551 0.43796 0.00659434 0.520026C0.0205942 0.602092 0.0563928 0.678054 0.109674 0.738752L8.1716 9.3871C8.19223 9.40722 8.21737 9.42124 8.24455 9.4278C8.27174 9.43436 8.30004 9.43322 8.3267 9.42451C8.35335 9.41579 8.37744 9.39979 8.39662 9.37808C8.4158 9.35636 8.4294 9.32967 8.4361 9.30061L9.13184 5.76715C9.13747 5.72951 9.15585 5.69545 9.18344 5.6715C9.21104 5.64755 9.24591 5.63541 9.28134 5.63742L12.1133 5.6276C12.3505 5.63607 12.5813 5.54452 12.7565 5.37251C12.9316 5.20051 13.0372 4.9617 13.0506 4.70717C13.0416 4.48705 12.9531 4.27936 12.8039 4.12825C12.6546 3.97713 12.4564 3.8945 12.2513 3.89793L9.19459 3.90775C9.15423 3.90896 9.11406 3.90137 9.07651 3.88544C9.03896 3.86951 9.0048 3.84558 8.97609 3.81509L7.6536 2.39429C7.61856 2.35926 7.59427 2.31359 7.58398 2.26336C7.57368 2.21313 7.57786 2.16073 7.59596 2.11312C7.61406 2.06551 7.64523 2.02494 7.68531 1.99682C7.72539 1.9687 7.77249 1.96114 7.82035 1.96248H12.3783C12.7148 1.96248 13.0481 2.0337 13.3591 2.17208C13.6701 2.31045 13.9526 2.51328 14.1906 2.76897C14.4286 3.02465 14.6174 3.3282 14.7462 3.66227C14.875 3.99635 14.9413 4.3544 14.9413 4.716C14.9413 5.0776 14.875 5.43566 14.7462 5.76973C14.6174 6.1038 14.4286 6.40735 14.1906 6.66303C13.9526 6.91872 13.6701 7.12155 13.3591 7.25993C13.0481 7.3983 12.7148 7.46952 12.3783 7.46952V7.47762H10.5679C10.4935 7.47762 10.4292 7.53334 10.4134 7.61147L10.0867 9.22595C10.0652 9.33188 10.1403 9.432 10.2413 9.432H12.4969L12.4973 9.43027C13.0332 9.41465 13.5623 9.29369 14.0581 9.07302C14.5907 8.83602 15.0746 8.48864 15.4823 8.05072C15.8899 7.6128 16.2132 7.09291 16.4339 6.52074C16.6545 5.94856 16.768 5.33532 16.768 4.716C16.768 4.09669 16.6545 3.48344 16.4339 2.91127C16.2486 2.43085 15.991 1.9873 15.6718 1.59817L15.6189 1.53484C15.5745 1.48261 15.5289 1.43141 15.4823 1.38129C15.0746 0.943364 14.5907 0.595986 14.0581 0.358985C13.5858 0.14877 13.0833 0.0290435 12.5735 0.00466511L12.411 0.000129658C12.4001 4.14907e-05 12.3892 0 12.3783 0L0.391421 0.00466511Z" fill="var(--fill-0, white)"/>
</svg>
